HIERARCHY
ROOT hip
{
  OFFSET 0 0 0
  CHANNELS 6 Xposition Yposition Zposition Zrotation Yrotation Xrotation
  JOINT abdomen
  {
    OFFSET 0 20.6881 -0.73152
    CHANNELS 3 Zrotation Xrotation Yrotation
    JOINT chest
    {
      OFFSET 0 11.7043 -0.48768
      CHANNELS 3 Zrotation Xrotation Yrotation
      JOINT neck
      {
        OFFSET 0 22.1894 -2.19456
        CHANNELS 3 Zrotation Xrotation Yrotation
        JOINT head
        {
          OFFSET -0.24384 7.07133 1.2192
          CHANNELS 3 Zrotation Xrotation Yrotation
          JOINT leftEye
          {
            OFFSET 4.14528 8.04674 8.04672
            CHANNELS 3 Zrotation Xrotation Yrotation
            End Site
            {
              OFFSET 1 0 0
            }
          }
          JOINT rightEye
          {
            OFFSET -3.6576 8.04674 8.04672
            CHANNELS 3 Zrotation Xrotation Yrotation
            End Site
            {
              OFFSET 1 0 0
            }
          }
        }
      }
      JOINT rCollar
      {
        OFFSET -2.68224 19.2634 -4.8768
        CHANNELS 3 Zrotation Xrotation Yrotation
        JOINT rShldr
        {
          OFFSET -8.77824 -1.95073 1.46304
          CHANNELS 3 Zrotation Xrotation Yrotation
          JOINT rForeArm
          {
            OFFSET -28.1742 -1.7115 0.48768
            CHANNELS 3 Zrotation Xrotation Yrotation
            JOINT rHand
            {
              OFFSET -22.5879 0.773209 7.07136
              CHANNELS 3 Zrotation Xrotation Yrotation
              JOINT rThumb1
              {
                OFFSET -1.2192 -0.487915 3.41376
                CHANNELS 3 Zrotation Xrotation Yrotation
                JOINT rThumb2
                {
                  OFFSET -3.37035 -0.52449 3.41376
                  CHANNELS 3 Zrotation Xrotation Yrotation
                  End Site
                  {
                    OFFSET -1.78271 -1.18214 1.43049
                  }
                }
              }
              JOINT rIndex1
              {
                OFFSET -7.75947 0.938293 5.60832
                CHANNELS 3 Zrotation Xrotation Yrotation
                JOINT rIndex2
                {
                  OFFSET -2.54057 -0.884171 1.56538
                  CHANNELS 3 Zrotation Xrotation Yrotation
                  End Site
                  {
                    OFFSET -1.62519 -0.234802 1.16502
                  }
                }
              }
              JOINT rMid1
              {
                OFFSET -8.24714 1.18213 3.41376
                CHANNELS 3 Zrotation Xrotation Yrotation
                JOINT rMid2
                {
                  OFFSET -3.10165 -0.590103 1.0647
                  CHANNELS 3 Zrotation Xrotation Yrotation
                  End Site
                  {
                    OFFSET -2.48547 -0.328903 0.83742
                  }
                }
              }
              JOINT rRing1
              {
                OFFSET -8.82822 0.546677 1.51678
                CHANNELS 3 Zrotation Xrotation Yrotation
                JOINT rRing2
                {
                  OFFSET -2.60934 -0.819778 -0.0198488
                  CHANNELS 3 Zrotation Xrotation Yrotation
                  End Site
                  {
                    OFFSET -2.33842 -0.294052 0.168128
                  }
                }
              }
              JOINT rPinky1
              {
                OFFSET -8.27202 -0.0477905 -0.4584
                CHANNELS 3 Zrotation Xrotation Yrotation
                JOINT rPinky2
                {
                  OFFSET -1.82734 -0.647385 -0.700984
                  CHANNELS 3 Zrotation Xrotation Yrotation
                  End Site
                  {
                    OFFSET -1.69225 -0.51767 -0.607171
                  }
                }
              }
            }
          }
        }
      }
      JOINT lCollar
      {
        OFFSET 2.68224 19.2634 -4.8768
        CHANNELS 3 Zrotation Xrotation Yrotation
        JOINT lShldr
        {
          OFFSET 8.77824 -1.95073 1.46304
          CHANNELS 3 Zrotation Xrotation Yrotation
          JOINT lForeArm
          {
            OFFSET 28.1742 -1.7115 0.48768
            CHANNELS 3 Zrotation Xrotation Yrotation
            JOINT lHand
            {
              OFFSET 22.5879 0.773209 7.07136
              CHANNELS 3 Zrotation Xrotation Yrotation
              JOINT lThumb1
              {
                OFFSET 1.2192 -0.487915 3.41376
                CHANNELS 3 Zrotation Xrotation Yrotation
                JOINT lThumb2
                {
                  OFFSET 3.37035 -0.52449 3.41376
                  CHANNELS 3 Zrotation Xrotation Yrotation
                  End Site
                  {
                    OFFSET 1.78271 -1.18214 1.43049
                  }
                }
              }
              JOINT lIndex1
              {
                OFFSET 7.75947 0.938293 5.60832
                CHANNELS 3 Zrotation Xrotation Yrotation
                JOINT lIndex2
                {
                  OFFSET 2.54057 -0.884171 1.56538
                  CHANNELS 3 Zrotation Xrotation Yrotation
                  End Site
                  {
                    OFFSET 1.62519 -0.234802 1.16502
                  }
                }
              }
              JOINT lMid1
              {
                OFFSET 8.24714 1.18213 3.41376
                CHANNELS 3 Zrotation Xrotation Yrotation
                JOINT lMid2
                {
                  OFFSET 3.10165 -0.590103 1.0647
                  CHANNELS 3 Zrotation Xrotation Yrotation
                  End Site
                  {
                    OFFSET 2.48547 -0.328903 0.83742
                  }
                }
              }
              JOINT lRing1
              {
                OFFSET 8.82822 0.546677 1.51678
                CHANNELS 3 Zrotation Xrotation Yrotation
                JOINT lRing2
                {
                  OFFSET 2.60934 -0.819778 -0.0198488
                  CHANNELS 3 Zrotation Xrotation Yrotation
                  End Site
                  {
                    OFFSET 2.33842 -0.294052 0.168128
                  }
                }
              }
              JOINT lPinky1
              {
                OFFSET 8.27202 -0.0477905 -0.4584
                CHANNELS 3 Zrotation Xrotation Yrotation
                JOINT lPinky2
                {
                  OFFSET 1.82734 -0.647385 -0.700984
                  CHANNELS 3 Zrotation Xrotation Yrotation
                  End Site
                  {
                    OFFSET 1.69225 -0.51767 -0.607171
                  }
                }
              }
            }
          }
        }
      }
    }
  }
  JOINT rButtock
  {
    OFFSET -8.77824 4.35084 1.2192
    CHANNELS 3 Zrotation Xrotation Yrotation
    JOINT rThigh
    {
      OFFSET 0 -1.70687 -2.19456
      CHANNELS 3 Zrotation Xrotation Yrotation
      JOINT rShin
      {
        OFFSET 0 -36.8199 0.73152
        CHANNELS 3 Zrotation Xrotation Yrotation
        JOINT rFoot
        {
          OFFSET 0.73152 -45.1104 -5.12064
          CHANNELS 3 Zrotation Xrotation Yrotation
          End Site
          {
            OFFSET -1.1221 -3.69964 12.103
          }
        }
      }
    }
  }
  JOINT lButtock
  {
    OFFSET 8.77824 4.35084 1.2192
    CHANNELS 3 Zrotation Xrotation Yrotation
    JOINT lThigh
    {
      OFFSET 0 -1.70687 -2.19456
      CHANNELS 3 Zrotation Xrotation Yrotation
      JOINT lShin
      {
        OFFSET 0 -36.8199 0.73152
        CHANNELS 3 Zrotation Xrotation Yrotation
        JOINT lFoot
        {
          OFFSET -0.73152 -45.1104 -5.12064
          CHANNELS 3 Zrotation Xrotation Yrotation
          End Site
          {
            OFFSET 1.1221 -3.69964 12.103
          }
        }
      }
    }
  }
}
MOTION
Frames:	8
Frame Time:	0.00833333
178.085 85.1237 4.09187 0.0 0.0 0.0 0.435977 -0.0238512 0.0128203 0.121276 -0.0396247 0.0210496 -1.14168e-14 -1.59028e-15 -4.34841e-17 -3.41785e-14 3.18055e-15 -1.30452e-16 -0.0 0.0 0.0 -0.0 0.0 0.0 -5.71636e-15 3.76604e-17 1.49089e-16 -1.16971e-13 1.2424e-15 -3.97569e-16 -2.05981e-12 6.58574e-13 1.90833e-14 -2.36285e-11 -4.13944e-13 -1.55847e-13 -5.57246e-11 5.2817e-13 -2.8943e-13 -9.62356e-11 9.12819e-13 -5.07298e-13 -5.57181e-11 5.30755e-13 -2.98972e-13 7.73091 5.47488 0.417314 -5.57228e-11 5.29065e-13 -2.92611e-13 2.90554 0.965183 0.102902 -5.5712e-11 5.28767e-13 -2.94201e-13 10.2786 0.731801 0.0259123 -5.57237e-11 5.26382e-13 -2.95792e-13 2.22167 -0.733487 -0.20892 -5.71414e-15 3.72721e-17 -1.49089e-16 -1.22436e-13 1.34801e-15 -1.78906e-15 -2.0692e-12 -5.75879e-13 -1.90833e-14 -2.36142e-11 8.26174e-13 -1.20861e-13 -5.57127e-11 5.40023e-13 -2.8943e-13 -9.62098e-11 9.31903e-13 -4.95371e-13 -5.57205e-11 5.45068e-13 -2.83069e-13 -7.73091 5.47488 -0.417314 -5.57153e-11 5.40694e-13 -2.95792e-13 -2.90554 0.965183 -0.102902 -5.57203e-11 5.40595e-13 -2.91021e-13 -10.2786 0.731801 -0.0259123 -5.57146e-11 5.38309e-13 -2.95792e-13 -2.22167 -0.733487 0.20892 -2.03217e-16 0.0 -3.88251e-19 0.651853 -4.71111 -0.0694717 -0.000843155 2.99809 0.00382714 -0.326243 1.72323 0.06977 2.03217e-16 0.0 3.88251e-19 0.0330132 -2.68024 0.023163 0.00579589 -0.679773 0.0505502 0.29629 3.37021 -0.0966985
170.033 81.9698 -9.5864 -53.0642 -79.298 62.9015 5.04263 -0.705037 0.696541 0.912342 -4.0033 0.243419 -2.91738 0.0789176 -2.8318 1.74254 4.07073 -5.4444 -0.0 0.0 0.0 -0.0 0.0 0.0 1.09386e-13 1.26147e-12 -7.09762e-14 17.3464 11.8687 -4.31059 -5.84617 -3.0873 8.61461 0.0453768 -4.72873 -0.656434 -5.33798e-11 -4.18793e-11 -8.69308e-10 -8.42644e-11 -6.98259e-11 -1.50484e-09 -5.33747e-11 -4.1878e-11 -8.69316e-10 7.73091 5.47488 0.417314 -5.33806e-11 -4.18791e-11 -8.69306e-10 2.90554 0.965183 0.102902 -5.33703e-11 -4.18779e-11 -8.69311e-10 10.2786 0.731801 0.0259123 -5.33795e-11 -4.18786e-11 -8.6931e-10 2.22167 -0.733487 -0.20892 1.09387e-13 1.26148e-12 -7.12484e-14 -22.5867 5.65659 3.36401 5.00955 -2.4592 -7.61564 -0.0116186 2.39139 -0.335031 -1.20869e-09 -9.23113e-11 4.37219e-10 -2.08474e-09 -1.5198e-10 7.67182e-10 -1.2087e-09 -9.23078e-11 4.37224e-10 -7.73091 5.47488 -0.417314 -1.20869e-09 -9.23109e-11 4.37215e-10 -2.90554 0.965183 -0.102902 -1.2087e-09 -9.23101e-11 4.37219e-10 -10.2786 0.731801 -0.0259123 -1.20869e-09 -9.23119e-11 4.37213e-10 -2.22167 -0.733487 0.20892 -2.03217e-16 0.0 -3.88251e-19 8.5345 -7.83829 3.90972 0.013475 6.365 0.0801993 -0.413801 -6.7235 -6.8441 2.03217e-16 0.0 3.88251e-19 7.47566 -4.91166 -4.99721 -0.0416936 -0.492545 -0.368141 2.41445 -13.6474 6.86513
170.04 81.9527 -9.59837 -53.284 -79.3098 63.1724 9.92823 -1.42145 1.41931 1.78196 -8.19601 0.482242 -5.99509 0.158018 -5.82416 4.42722 8.25931 -11.2868 -0.0 0.0 0.0 -0.0 0.0 0.0 2.39312e-13 2.70302e-12 -1.53207e-13 37.7869 24.1878 -9.52034 -11.0292 -6.1191 17.8017 -0.0259872 -9.71685 -1.36419 -5.19018e-11 -9.60916e-11 -1.85319e-09 -7.27958e-11 -1.60687e-10 -3.20797e-09 -5.18982e-11 -9.60916e-11 -1.8532e-09 7.73091 5.47488 0.417314 -5.19053e-11 -9.6092e-11 -1.85318e-09 2.90554 0.965183 0.102902 -5.18956e-11 -9.60893e-11 -1.85319e-09 10.2786 0.731801 0.0259123 -5.19021e-11 -9.60881e-11 -1.85319e-09 2.22167 -0.733487 -0.20892 2.39312e-13 2.70304e-12 -1.53452e-13 -47.1994 11.5663 7.03005 9.60161 -4.91449 -15.7118 0.00661472 4.92075 -0.691376 -2.517e-09 -2.01766e-10 9.35273e-10 -4.34115e-09 -3.32612e-10 1.64101e-09 -2.517e-09 -2.01764e-10 9.35277e-10 -7.73091 5.47488 -0.417314 -2.517e-09 -2.01766e-10 9.35272e-10 -2.90554 0.965183 -0.102902 -2.517e-09 -2.01764e-10 9.35275e-10 -10.2786 0.731801 -0.0259123 -2.51699e-09 -2.01766e-10 9.35267e-10 -2.22167 -0.733487 0.20892 -2.03217e-16 0.0 -3.88251e-19 17.3436 -11.0705 8.1956 0.0186698 9.92651 0.162371 -2.77375 -15.2736 -14.5796 2.03217e-16 0.0 3.88251e-19 14.913 -7.19289 -10.3493 -0.0888758 -0.294716 -0.810646 9.74963 -30.8078 16.1524
170.016 81.9478 -9.61664 -53.6753 -79.3715 63.6057 14.3047 -2.06622 2.06517 2.58854 -11.9299 0.701529 -8.72882 0.234441 -8.49548 7.5553 11.7676 -16.6517 -0.0 0.0 0.0 -0.0 0.0 0.0 3.39591e-13 3.78435e-12 -2.13227e-13 58.3224 34.7101 -15.4563 -14.8334 -8.42601 26.1087 -0.197552 -14.1786 -2.02429 -4.86903e-11 -1.26694e-10 -2.60735e-09 -6.0322e-11 -2.11303e-10 -4.5135e-09 -4.86879e-11 -1.26695e-10 -2.60735e-09 7.73091 5.47488 0.417314 -4.86961e-11 -1.26695e-10 -2.60733e-09 2.90554 0.965183 0.102902 -4.8687e-11 -1.26691e-10 -2.60735e-09 10.2786 0.731801 0.0259123 -4.86912e-11 -1.26688e-10 -2.60734e-09 2.22167 -0.733487 -0.20892 3.39589e-13 3.78438e-12 -2.13447e-13 -69.8158 16.7307 10.4917 13.1135 -6.85737 -22.9996 0.0496032 7.17318 -1.01214 -3.51465e-09 -2.78014e-10 1.31224e-09 -6.06181e-09 -4.57804e-10 2.30254e-09 -3.51465e-09 -2.78014e-10 1.31224e-09 -7.73091 5.47488 -0.417314 -3.51465e-09 -2.78014e-10 1.31224e-09 -2.90554 0.965183 -0.102902 -3.51465e-09 -2.78012e-10 1.31224e-09 -10.2786 0.731801 -0.0259123 -3.51464e-09 -2.78012e-10 1.31223e-09 -2.22167 -0.733487 0.20892 -2.03217e-16 0.0 -3.88251e-19 25.6266 -13.844 12.1149 0.0145241 13.0987 0.237655 -6.95426 -22.168 -22.2524 2.03217e-16 0.0 3.88251e-19 21.1912 -9.10706 -15.1786 -0.128464 -0.118093 -1.20548 22.7438 -44.1912 28.7948
169.984 81.9474 -9.65897 -54.0824 -79.4293 64.0396 17.3744 -2.53304 2.51768 3.17038 -14.5175 0.859296 -10.6172 0.306123 -10.3641 10.1411 13.9995 -20.516 -0.0 0.0 0.0 -0.0 0.0 0.0 3.65754e-13 3.96514e-12 -2.17719e-13 74.3653 41.5775 -20.8286 -17.0684 -9.71902 31.9623 -0.383182 -17.3317 -2.51374 -4.11452e-11 -9.82728e-11 -2.78718e-09 -4.53352e-11 -1.61308e-10 -4.82506e-09 -4.11433e-11 -9.82752e-11 -2.78718e-09 7.73091 5.47488 0.417314 -4.11521e-11 -9.82748e-11 -2.78716e-09 2.90554 0.965183 0.102902 -4.11434e-11 -9.82701e-11 -2.78718e-09 10.2786 0.731801 0.0259123 -4.11468e-11 -9.8266e-11 -2.78717e-09 2.22167 -0.733487 -0.20892 3.65748e-13 3.96518e-12 -2.17918e-13 -85.9712 20.2588 13.0633 15.2576 -8.01537 -28.1206 0.0944863 8.73418 -1.2372 -3.73567e-09 -2.71244e-10 1.38647e-09 -6.44309e-09 -4.44393e-10 2.4333e-09 -3.73567e-09 -2.71244e-10 1.38647e-09 -7.73091 5.47488 -0.417314 -3.73566e-09 -2.71244e-10 1.38647e-09 -2.90554 0.965183 -0.102902 -3.73566e-09 -2.71242e-10 1.38648e-09 -10.2786 0.731801 -0.0259123 -3.73566e-09 -2.71242e-10 1.38646e-09 -2.22167 -0.733487 0.20892 -2.03217e-16 0.0 -3.88251e-19 31.6518 -15.6922 14.9087 0.00675439 15.2979 0.29157 -11.0698 -26.3245 -28.1939 2.03217e-16 0.0 3.88251e-19 25.3948 -10.3438 -18.5802 -0.15485 0.00554461 -1.48114 37.1022 -51.3314 41.88
169.965 81.9437 -9.72263 -54.3902 -79.4097 64.3815 18.612 -2.74854 2.6981 3.41511 -15.4964 0.923046 -11.3289 0.37827 -11.111 11.246 14.731 -22.0864 -0.0 0.0 0.0 -0.0 0.0 0.0 2.69406e-13 2.5858e-12 -1.22524e-13 81.112 44.0907 -23.2968 -17.8493 -10.1316 34.2418 -0.476968 -18.6712 -2.7285 -4.90617e-11 1.67264e-11 -1.96085e-09 -6.58098e-11 3.58978e-11 -3.39559e-09 -4.90588e-11 1.67226e-11 -1.96085e-09 7.73091 5.47488 0.417314 -4.90674e-11 1.67226e-11 -1.96083e-09 2.90554 0.965183 0.102902 -4.90592e-11 1.6727e-11 -1.96085e-09 10.2786 0.731801 0.0259123 -4.90643e-11 1.67318e-11 -1.96084e-09 2.22167 -0.733487 -0.20892 2.69394e-13 2.58584e-12 -1.22703e-13 -92.383 21.6689 14.1117 16.0305 -8.41331 -30.1263 0.115209 9.33557 -1.32466 -2.67807e-09 -1.11228e-10 9.13012e-10 -4.61969e-09 -1.74004e-10 1.605e-09 -2.67807e-09 -1.11228e-10 9.13015e-10 -7.73091 5.47488 -0.417314 -2.67807e-09 -1.11228e-10 9.13015e-10 -2.90554 0.965183 -0.102902 -2.67806e-09 -1.11226e-10 9.13016e-10 -10.2786 0.731801 -0.0259123 -2.67806e-09 -1.11225e-10 9.13005e-10 -2.22167 -0.733487 0.20892 -2.03217e-16 0.0 -3.88251e-19 34.1233 -16.4039 16.0389 0.00306034 16.1586 0.313781 -12.8857 -27.6358 -30.7145 2.03217e-16 0.0 3.88251e-19 27.0605 -10.771 -19.9729 -0.165044 0.0479741 -1.58631 44.182 -53.5043 48.2037
169.932 81.9345 -9.77884 -54.5159 -79.4045 64.5499 18.5368 -2.7849 2.68396 3.41117 -15.3265 0.916924 -11.2025 0.451082 -11.0563 11.13 14.4779 -21.9678 -0.0 0.0 0.0 -0.0 0.0 0.0 8.64429e-14 1.06339e-13 4.28319e-14 80.3082 43.7648 -22.9702 -17.7449 -10.0683 33.9424 -0.476242 -18.7163 -2.73495 -6.6997e-11 1.93379e-10 -4.25453e-10 -1.09758e-10 3.37952e-10 -7.39174e-10 -6.69922e-11 1.93374e-10 -4.25456e-10 7.73091 5.47488 0.417314 -6.69999e-11 1.93373e-10 -4.25443e-10 2.90554 0.965183 0.102902 -6.69922e-11 1.93376e-10 -4.25452e-10 10.2786 0.731801 0.0259123 -6.70008e-11 1.93381e-10 -4.25448e-10 2.22167 -0.733487 -0.20892 8.64246e-14 1.06368e-13 4.26704e-14 -91.6604 21.6166 13.9909 15.9395 -8.36463 -29.8885 0.112397 9.25133 -1.3124 -7.16282e-10 1.56488e-10 5.42412e-11 -1.23723e-09 2.76944e-10 1.01935e-10 -7.16283e-10 1.56489e-10 5.42458e-11 -7.73091 5.47488 -0.417314 -7.16279e-10 1.56487e-10 5.42432e-11 -2.90554 0.965183 -0.102902 -7.1628e-10 1.56488e-10 5.42457e-11 -10.2786 0.731801 -0.0259123 -7.16273e-10 1.5649e-10 5.42347e-11 -2.22167 -0.733487 0.20892 -2.03217e-16 0.0 -3.88251e-19 33.9572 -16.344 15.9471 0.00445809 16.0623 0.312534 -12.5515 -27.2451 -30.522 2.03217e-16 0.0 3.88251e-19 26.9922 -10.6647 -19.9109 -0.16428 0.0327488 -1.56986 43.5039 -53.5397 47.5539
169.872 81.9259 -9.82374 -54.8086 -79.4479 64.8663 17.9158 -2.75432 2.593 3.29386 -14.7042 0.881017 -10.742 0.515293 -10.6782 10.5227 13.8503 -21.1715 -0.0 0.0 0.0 -0.0 0.0 0.0 -1.0117e-13 -2.33416e-12 2.01134e-13 76.5135 42.2963 -21.5455 -17.2912 -9.81941 32.6272 -0.435045 -18.2222 -2.65399 -5.44943e-11 3.88383e-10 1.07019e-09 -1.00728e-10 6.71778e-10 1.8489e-09 -5.44876e-11 3.88376e-10 1.07019e-09 7.73091 5.47488 0.417314 -5.44944e-11 3.88375e-10 1.0702e-09 2.90554 0.965183 0.102902 -5.44869e-11 3.88377e-10 1.07019e-09 10.2786 0.731801 0.0259123 -5.4499e-11 3.88382e-10 1.07019e-09 2.22167 -0.733487 -0.20892 -1.01198e-13 -2.33414e-12 2.00984e-13 -88.0778 20.9692 13.4103 15.5031 -8.13735 -28.7549 0.0999682 8.88053 -1.25851 1.30106e-09 4.08048e-10 -7.60454e-10 2.24161e-09 6.99418e-10 -1.32544e-09 1.30106e-09 4.0805e-10 -7.60448e-10 -7.73091 5.47488 -0.417314 1.30106e-09 4.08048e-10 -7.60453e-10 -2.90554 0.965183 -0.102902 1.30106e-09 4.08047e-10 -7.6045e-10 -10.2786 0.731801 -0.0259123 1.30106e-09 4.08051e-10 -7.6046e-10 -2.22167 -0.733487 0.20892 -2.03217e-16 0.0 -3.88251e-19 32.6899 -15.9519 15.3114 0.00785547 15.5448 0.300436 -11.4107 -26.3028 -29.1804 2.03217e-16 0.0 3.88251e-19 26.2105 -10.3721 -19.1751 -0.159557 0.00577897 -1.51062 39.5598 -52.4936 44.0027
